<svg xmlns="http://www.w3.org/2000/svg" xmlns:xlink="http://www.w3.org/1999/xlink" viewBox="0,0,256,256" width="24px" height="24px" fill-rule="nonzero"><g fill="#d58675" fill-rule="nonzero" stroke="none" stroke-width="1" stroke-linecap="butt" stroke-linejoin="miter" stroke-miterlimit="10" stroke-dasharray="" stroke-dashoffset="0" font-family="none" font-weight="none" font-size="none" text-anchor="none" style="mix-blend-mode: normal"><g transform="scale(2.56,2.56)"><path d="M31,17c-7.72039,0 -14,6.27961 -14,14v38c0,7.72039 6.27961,14 14,14h38c7.72039,0 14,-6.27961 14,-14v-38c0,-7.72039 -6.27961,-14 -14,-14zM31,19h38c6.63961,0 12,5.36039 12,12v38c0,6.63961 -5.36039,12 -12,12h-38c-6.63961,0 -12,-5.36039 -12,-12v-38c0,-6.63961 5.36039,-12 12,-12zM33.5,22c-6.34523,0 -11.5,5.15477 -11.5,11.5c-0.00255,0.18032 0.09219,0.34804 0.24794,0.43894c0.15575,0.0909 0.34838,0.0909 0.50413,0c0.15575,-0.0909 0.25049,-0.25863 0.24794,-0.43894c0,-5.80477 4.69523,-10.5 10.5,-10.5h3c0.18032,0.00255 0.34804,-0.09219 0.43894,-0.24794c0.0909,-0.15575 0.0909,-0.34838 0,-0.50413c-0.0909,-0.15575 -0.25863,-0.25049 -0.43894,-0.24794zM49.5,26c-0.27613,0.00003 -0.49997,0.22387 -0.5,0.5v14v4.89453v12.10547c0,3.58777 -2.91124,6.5 -6.5,6.5c-0.68248,0 -1.33892,-0.10748 -1.95703,-0.30273c-0.96083,-1.13318 -1.54297,-2.59636 -1.54297,-4.19727c0,-3.58777 2.91124,-6.5 6.5,-6.5c0.31353,0 0.62234,0.02548 0.92773,0.07031c0.14392,0.02101 0.28986,-0.02169 0.39976,-0.11697c0.1099,-0.09527 0.17288,-0.23368 0.1725,-0.37913v-7.03711c-0.00032,-0.26152 -0.2021,-0.47861 -0.46289,-0.49805c-0.34224,-0.02593 -0.68725,-0.03906 -1.03711,-0.03906c-0.50628,0 -1.0069,0.02715 -1.5,0.07813v-1.54102c-0.00032,-0.26152 -0.2021,-0.47861 -0.46289,-0.49805c-0.34224,-0.02593 -0.68725,-0.03906 -1.03711,-0.03906c-7.99116,0 -14.5,6.50884 -14.5,14.5c0,5.66722 3.28084,10.57568 8.03516,12.95898c2.5433,2.19992 5.84867,3.54102 9.46484,3.54102c7.99116,0 14.5,-6.50884 14.5,-14.5v-16.29102c3.93675,2.76971 8.41419,3.79102 11.5,3.79102c0.27613,-0.00003 0.49997,-0.22387 0.5,-0.5v-7c-0.00003,-0.27613 -0.22387,-0.49997 -0.5,-0.5c-0.10309,0 -1.1206,-0.01521 -2.5,-0.33203v-1.16797c-0.00003,-0.27613 -0.22387,-0.49997 -0.5,-0.5c-0.15979,0 -2.5058,-0.04707 -5.01562,-1.19141c-1.64922,-1.54981 -3.02175,-3.84889 -3.45898,-7.37109c-0.03152,-0.24999 -0.24412,-0.43749 -0.49609,-0.4375h-2.22656c-0.11171,-0.4948 -0.20878,-1.01018 -0.27734,-1.5625c-0.03152,-0.24999 -0.24412,-0.43749 -0.49609,-0.4375zM50,27h6.14063c0.05244,0.34363 0.11402,0.67671 0.18359,1h-3.82422c-0.27613,0.00003 -0.49997,0.22387 -0.5,0.5v14v4.89453v12.10547c0,3.58777 -2.91124,6.5 -6.5,6.5c-1.2868,0 -2.48257,-0.37966 -3.49219,-1.02539c0.16336,0.01071 0.3262,0.02539 0.49219,0.02539c4.13124,0 7.5,-3.36977 7.5,-7.5v-12.10547v-4.89453zM53,29h3.57617c1.14822,4.00893 3.63571,6.30593 6.05469,7.52148c0.13295,0.06681 0.26008,0.11707 0.39063,0.17773c0.83553,0.76597 1.7233,1.37701 2.60938,1.82227c0.85087,0.42757 1.64817,0.71867 2.36914,0.92773v4.46875c-3.07112,-0.09162 -7.47526,-1.09684 -11.19141,-4.00977c-0.15072,-0.11818 -0.35569,-0.13988 -0.52782,-0.0559c-0.17213,0.08398 -0.28116,0.25891 -0.28077,0.45043v17.19727c0,7.44884 -6.05116,13.5 -13.5,13.5c-2.11968,0 -4.11821,-0.50418 -5.9043,-1.37695c-2.81089,-2.47505 -4.5957,-6.08859 -4.5957,-10.12305c0,-6.59373 4.74462,-12.08227 11,-13.25781v3.79492c-0.167,-0.01195 -0.32912,-0.03711 -0.5,-0.03711c-4.13124,0 -7.5,3.36977 -7.5,7.5c0,3.24502 2.08355,6.01204 4.97852,7.05273c1.37279,1.49871 3.33691,2.44727 5.52148,2.44727c4.13124,0 7.5,-3.36977 7.5,-7.5v-12.10547v-4.89453zM57.5625,29h1.57813c0.33065,2.16671 1.0259,3.90471 1.91016,5.32031c-1.4447,-1.16991 -2.73792,-2.85356 -3.48828,-5.32031zM66.38086,37.76367c0.71648,0.12365 1.30672,0.17446 1.61914,0.18555v0.44727c-0.51782,-0.16085 -1.06652,-0.37451 -1.61914,-0.63281zM69,39.70313c0.92145,0.19098 1.62928,0.23294 2,0.24609v5.96875c-1.91839,-0.05723 -4.3562,-0.46993 -6.82227,-1.48242c1.58208,0.38525 3.06959,0.56445 4.32227,0.56445c0.27613,-0.00003 0.49997,-0.22387 0.5,-0.5zM57,41.20898c0.65396,0.4601 1.32506,0.85572 2,1.22266v17.06836c0,7.44884 -6.05116,13.5 -13.5,13.5c-2.01874,0 -3.92764,-0.45764 -5.64844,-1.25391c0.85992,0.15975 1.74317,0.25391 2.64844,0.25391c7.99116,0 14.5,-6.50884 14.5,-14.5zM42.5,44c0.16832,0 0.33356,0.01292 0.5,0.01953v1.21094c-6.8034,1.19083 -12,7.13203 -12,14.26953c0,2.92098 0.87729,5.63858 2.37109,7.91797c-2.67962,-2.46806 -4.37109,-5.9928 -4.37109,-9.91797c0,-7.44884 6.05116,-13.5 13.5,-13.5zM45.5,46c0.16832,0 0.33356,0.01292 0.5,0.01953v6.01758c-0.167,-0.01195 -0.32912,-0.03711 -0.5,-0.03711c-4.13124,0 -7.5,3.36977 -7.5,7.5c0,1.19784 0.2918,2.32772 0.79492,3.33398c-1.68699,-1.17461 -2.79492,-3.12412 -2.79492,-5.33398c0,-3.58777 2.91124,-6.5 6.5,-6.5c0.31353,0 0.62234,0.02548 0.92773,0.07031c0.14392,0.02101 0.28986,-0.02169 0.39976,-0.11697c0.1099,-0.09527 0.17288,-0.23368 0.1725,-0.37913v-4.48633c0.49313,-0.05472 0.99242,-0.08789 1.5,-0.08789zM77.49219,65.99219c-0.13261,0.00207 -0.25896,0.05673 -0.35127,0.15197c-0.0923,0.09523 -0.14299,0.22324 -0.14092,0.35584c0,0.31828 -0.01975,0.63524 -0.04883,0.95508c-0.01607,0.17795 0.06402,0.35095 0.2101,0.45384c0.14608,0.10288 0.33595,0.12001 0.49809,0.04493c0.16213,-0.07508 0.27189,-0.23096 0.28791,-0.40892c0.03092,-0.34015 0.05273,-0.6872 0.05273,-1.04492c0.00212,-0.13532 -0.0507,-0.26572 -0.1464,-0.36141c-0.0957,-0.0957 -0.22609,-0.14852 -0.36141,-0.1464zM77.05859,68.99414c-0.21839,0.00867 -0.40585,0.15816 -0.46289,0.36914c-0.29131,1.02772 -0.73133,1.99051 -1.30078,2.86328c-0.1083,0.14927 -0.12566,0.34603 -0.04515,0.51196c0.08051,0.16592 0.24581,0.27406 0.43008,0.28136c0.18428,0.0073 0.35761,-0.08741 0.451,-0.24644c0.62455,-0.95723 1.1071,-2.01244 1.42578,-3.13672c0.04607,-0.15452 0.01481,-0.32177 -0.08397,-0.44922c-0.09878,-0.12744 -0.25295,-0.19944 -0.41408,-0.19336zM74.03906,73.99414c-0.13001,0.00052 -0.25471,0.05166 -0.34766,0.14258c-1.88102,1.77211 -4.40316,2.86328 -7.19141,2.86328c-0.18032,-0.00255 -0.34804,0.09219 -0.43894,0.24794c-0.0909,0.15575 -0.0909,0.34838 0,0.50413c0.0909,0.15575 0.25863,0.25049 0.43894,0.24794c3.04975,0 5.81997,-1.19883 7.87695,-3.13672c0.15237,-0.13928 0.20349,-0.35787 0.12869,-0.55028c-0.0748,-0.19241 -0.26015,-0.31907 -0.46658,-0.31886z"></path></g></g></svg>